<svg width="32" height="33" viewBox="0 0 32 33" fill="none" xmlns="http://www.w3.org/2000/svg">
<path d="M1.97333 31.9697C1.97333 30.9548 2.37649 29.9815 3.09413 29.2639C3.81177 28.5462 4.7851 28.1431 5.79999 28.1431C6.81381 28.1466 7.7851 28.5509 8.50197 29.2678C9.21885 29.9846 9.62315 30.9559 9.62666 31.9697" stroke="#FAFAFA" stroke-width="2" stroke-miterlimit="10"/>
<path d="M5.80002 25.5831C7.20651 25.5831 8.34669 24.4429 8.34669 23.0364C8.34669 21.6299 7.20651 20.4897 5.80002 20.4897C4.39354 20.4897 3.25336 21.6299 3.25336 23.0364C3.25336 24.4429 4.39354 25.5831 5.80002 25.5831Z" stroke="#FAFAFA" stroke-width="2" stroke-miterlimit="10"/>
<path d="M12.1733 14.1162C12.1733 13.1013 12.5765 12.128 13.2941 11.4104C14.0118 10.6927 14.9851 10.2896 16 10.2896C17.0149 10.2896 17.9882 10.6927 18.7059 11.4104C19.4235 12.128 19.8267 13.1013 19.8267 14.1162" stroke="#FAFAFA" stroke-width="2" stroke-miterlimit="10"/>
<path d="M16 7.72956C17.4065 7.72956 18.5466 6.58938 18.5466 5.1829C18.5466 3.77641 17.4065 2.63623 16 2.63623C14.5935 2.63623 13.4533 3.77641 13.4533 5.1829C13.4533 6.58938 14.5935 7.72956 16 7.72956Z" stroke="#FAFAFA" stroke-width="2" stroke-miterlimit="10"/>
<path d="M22.3734 31.9697C22.3769 30.9559 22.7812 29.9846 23.498 29.2678C24.2149 28.5509 25.1862 28.1466 26.2 28.1431C27.2149 28.1431 28.1882 28.5462 28.9059 29.2639C29.6235 29.9815 30.0267 30.9548 30.0267 31.9697" stroke="#FAFAFA" stroke-width="2" stroke-miterlimit="10"/>
<path d="M26.2 25.5831C27.6065 25.5831 28.7467 24.4429 28.7467 23.0364C28.7467 21.6299 27.6065 20.4897 26.2 20.4897C24.7935 20.4897 23.6533 21.6299 23.6533 23.0364C23.6533 24.4429 24.7935 25.5831 26.2 25.5831Z" stroke="#FAFAFA" stroke-width="2" stroke-miterlimit="10"/>
<path d="M4.58667 18.0895C4.79395 15.9459 5.59862 13.9036 6.90917 12.1947C8.21971 10.4858 9.98353 9.17896 12 8.42285" stroke="#FAFAFA" stroke-width="2" stroke-miterlimit="10"/>
<path d="M11.8267 29.9697C14.5101 31.0183 17.4899 31.0183 20.1733 29.9697" stroke="#FAFAFA" stroke-width="2" stroke-miterlimit="10"/>
<path d="M20 8.43604C22.0297 9.17486 23.8085 10.4739 25.13 12.1824C26.4515 13.891 27.2617 15.9391 27.4667 18.0894" stroke="#FAFAFA" stroke-width="2" stroke-miterlimit="10"/>
</svg>
