<svg width="32" height="33" viewBox="0 0 32 33" fill="none" xmlns="http://www.w3.org/2000/svg">
<path d="M24.96 23.0498V28.1565" stroke="#FAFAFA" stroke-width="2" stroke-miterlimit="10"/>
<path d="M19.84 23.0498V28.1565" stroke="#FAFAFA" stroke-width="2" stroke-miterlimit="10"/>
<path d="M14.72 23.0498V28.1565" stroke="#FAFAFA" stroke-width="2" stroke-miterlimit="10"/>
<path d="M30.0666 20.4896V30.7162H7.05331C6.35985 30.7517 5.66644 30.6457 5.01523 30.4047C4.36403 30.1637 3.76864 29.7928 3.26529 29.3145C2.76193 28.8362 2.36112 28.2605 2.08724 27.6224C1.81336 26.9844 1.67212 26.2973 1.67212 25.6029C1.67212 24.9085 1.81336 24.2214 2.08724 23.5834C2.36112 22.9453 2.76193 22.3696 3.26529 21.8913C3.76864 21.413 4.36403 21.0421 5.01523 20.8011C5.66644 20.5602 6.35985 20.4542 7.05331 20.4896H30.0666Z" stroke="#FAFAFA" stroke-width="2" stroke-miterlimit="10"/>
<path d="M30.0666 20.4896V30.7162H7.05331C6.35985 30.7517 5.66644 30.6457 5.01523 30.4047C4.36403 30.1637 3.76864 29.7928 3.26529 29.3145C2.76193 28.8362 2.36112 28.2605 2.08724 27.6224C1.81336 26.9844 1.67212 26.2973 1.67212 25.6029C1.67212 24.9085 1.81336 24.2214 2.08724 23.5834C2.36112 22.9453 2.76193 22.3696 3.26529 21.8913C3.76864 21.413 4.36403 21.0421 5.01523 20.8011C5.66644 20.5602 6.35985 20.4542 7.05331 20.4896H30.0666Z" stroke="#FAFAFA" stroke-width="2" stroke-miterlimit="10"/>
<path d="M1.93329 25.5963V2.58301H12.1733V13.2497" stroke="#FAFAFA" stroke-width="2" stroke-miterlimit="10"/>
<path d="M27.3866 12.503L19.3866 20.503H7.0533C5.69877 20.497 4.39616 21.0237 3.42664 21.9697L20.1466 5.27637L27.3866 12.503Z" stroke="#FAFAFA" stroke-width="2" stroke-miterlimit="10"/>
<path d="M5.77332 25.5962H8.33332" stroke="#FAFAFA" stroke-width="2" stroke-miterlimit="10"/>
<path d="M4.49329 7.70312H9.61329" stroke="#FAFAFA" stroke-width="2" stroke-miterlimit="10"/>
<path d="M4.49329 12.8096H9.61329" stroke="#FAFAFA" stroke-width="2" stroke-miterlimit="10"/>
<path d="M18.56 10.2632L22.4 14.0899" stroke="#FAFAFA" stroke-width="2" stroke-miterlimit="10"/>
<path d="M14.72 14.0898L18.56 17.9298" stroke="#FAFAFA" stroke-width="2" stroke-miterlimit="10"/>
</svg>
