<svg width="32" height="33" viewBox="0 0 32 33" fill="none" xmlns="http://www.w3.org/2000/svg">
<path d="M30 16.6362C30.0093 19.7585 28.9747 22.7942 27.0606 25.2609C25.1465 27.7276 22.4627 29.4837 19.436 30.25C16.4092 31.0162 13.2131 30.7487 10.3559 29.49C7.4986 28.2312 5.1441 26.0535 3.66666 23.3029C2.77509 21.6529 2.23059 19.8379 2.06666 17.9696C2.06666 17.5562 2.06666 17.1562 2.06666 16.7429C2.05261 14.901 2.40215 13.0745 3.09525 11.368C3.78835 9.66142 4.8114 8.10842 6.10575 6.79796C7.40011 5.4875 8.94034 4.44534 10.6382 3.73119C12.336 3.01704 14.1581 2.64495 16 2.63623C16.4133 2.63623 16.8133 2.63623 17.2267 2.63623C19.095 2.80016 20.91 3.34466 22.56 4.23623C24.8151 5.42565 26.7009 7.21045 28.0126 9.39664C29.3244 11.5828 30.0117 14.0867 30 16.6362Z" stroke="#FAFAFA" stroke-width="2" stroke-miterlimit="10"/>
<path d="M22.6667 4.28955C23.7708 6.33691 24.3396 8.63017 24.32 10.9562C24.3148 12.7952 23.9469 14.6152 23.2375 16.3118C22.5281 18.0085 21.491 19.5486 20.1857 20.844C18.8804 22.1395 17.3324 23.1648 15.6304 23.8612C13.9283 24.5577 12.1057 24.9117 10.2667 24.9029C7.96772 24.9277 5.69903 24.3777 3.66666 23.3029" stroke="#FAFAFA" stroke-width="2" stroke-miterlimit="10"/>
<path d="M17.2267 2.68945C17.2267 3.08945 17.2267 3.50279 17.2267 3.90279C17.2372 5.74402 16.8841 7.56922 16.1876 9.27366C15.4911 10.9781 14.4649 12.5283 13.1679 13.8352C11.8709 15.1421 10.3286 16.18 8.62949 16.8895C6.93039 17.599 5.10794 17.966 3.26668 17.9695C2.86668 17.9695 2.45334 17.9695 2.05334 17.9695" stroke="#FAFAFA" stroke-width="2" stroke-miterlimit="10"/>
</svg>
