<svg width="32" height="33" viewBox="0 0 32 33" fill="none" xmlns="http://www.w3.org/2000/svg">
<path d="M9.64 8.99609V15.9961C9.64 16.8413 9.30426 17.6518 8.70664 18.2494C8.10903 18.847 7.29849 19.1828 6.45333 19.1828C5.60817 19.1828 4.79763 18.847 4.20002 18.2494C3.6024 17.6518 3.26666 16.8413 3.26666 15.9961L5.81333 8.99609H9.64Z" stroke="#FAFAFA" stroke-width="2" stroke-miterlimit="10" stroke-linecap="square"/>
<path d="M16 8.99609V15.9961C16.0282 16.431 15.9669 16.8671 15.8198 17.2774C15.6727 17.6876 15.4431 18.0634 15.145 18.3814C14.847 18.6994 14.4869 18.9528 14.087 19.1261C13.6871 19.2994 13.2559 19.3888 12.82 19.3888C12.3842 19.3888 11.953 19.2994 11.5531 19.1261C11.1532 18.9528 10.7931 18.6994 10.495 18.3814C10.197 18.0634 9.96731 17.6876 9.82025 17.2774C9.67319 16.8671 9.61185 16.431 9.64003 15.9961V8.99609H16Z" stroke="#FAFAFA" stroke-width="2" stroke-miterlimit="10" stroke-linecap="square"/>
<path d="M22.36 8.99609V15.9961C22.3882 16.431 22.3269 16.8671 22.1798 17.2774C22.0327 17.6876 21.8031 18.0634 21.505 18.3814C21.207 18.6994 20.8469 18.9528 20.447 19.1261C20.047 19.2994 19.6158 19.3888 19.18 19.3888C18.7442 19.3888 18.313 19.2994 17.9131 19.1261C17.5132 18.9528 17.1531 18.6994 16.855 18.3814C16.557 18.0634 16.3273 17.6876 16.1802 17.2774C16.0332 16.8671 15.9718 16.431 16 15.9961V8.99609H22.36Z" stroke="#FAFAFA" stroke-width="2" stroke-miterlimit="10" stroke-linecap="square"/>
<path d="M28.7333 15.9961C28.7333 16.8413 28.3976 17.6518 27.8 18.2494C27.2023 18.847 26.3918 19.1828 25.5467 19.1828C24.7015 19.1828 23.891 18.847 23.2933 18.2494C22.6957 17.6518 22.36 16.8413 22.36 15.9961V8.99609H26.1867L28.7333 15.9961Z" stroke="#FAFAFA" stroke-width="2" stroke-miterlimit="10" stroke-linecap="square"/>
<path d="M26.1867 19.1828V30.6361H5.81335V19.1828H6.45335C6.87183 19.1828 7.28621 19.1003 7.67284 18.9402C8.05946 18.78 8.41076 18.5453 8.70667 18.2494C9.00258 17.9535 9.2373 17.6022 9.39745 17.2156C9.55759 16.829 9.64002 16.4146 9.64002 15.9961C9.61184 16.431 9.67318 16.8671 9.82024 17.2774C9.9673 17.6876 10.197 18.0634 10.495 18.3814C10.7931 18.6994 11.1532 18.9528 11.5531 19.1261C11.953 19.2994 12.3842 19.3888 12.82 19.3888C13.2559 19.3888 13.6871 19.2994 14.087 19.1261C14.4869 18.9528 14.847 18.6994 15.145 18.3814C15.4431 18.0634 15.6727 17.6876 15.8198 17.2774C15.9669 16.8671 16.0282 16.431 16 15.9961C15.9718 16.431 16.0332 16.8671 16.1802 17.2774C16.3273 17.6876 16.557 18.0634 16.855 18.3814C17.1531 18.6994 17.5132 18.9528 17.9131 19.1261C18.313 19.2994 18.7442 19.3888 19.18 19.3888C19.6159 19.3888 20.0471 19.2994 20.447 19.1261C20.8469 18.9528 21.207 18.6994 21.505 18.3814C21.8031 18.0634 22.0327 17.6876 22.1798 17.2774C22.3269 16.8671 22.3882 16.431 22.36 15.9961C22.36 16.4146 22.4424 16.829 22.6026 17.2156C22.7627 17.6022 22.9975 17.9535 23.2934 18.2494C23.5893 18.5453 23.9406 18.78 24.3272 18.9402C24.7138 19.1003 25.1282 19.1828 25.5467 19.1828H26.1867Z" stroke="#FAFAFA" stroke-width="2" stroke-miterlimit="10" stroke-linecap="square"/>
<path d="M2 30.6362H5.81333H26.1867H30" stroke="#FAFAFA" stroke-width="2" stroke-miterlimit="10" stroke-linecap="square"/>
<path d="M23.6267 2.63623H8.35999V8.99623H23.6267V2.63623Z" stroke="#FAFAFA" stroke-width="2" stroke-miterlimit="10" stroke-linecap="square"/>
<path d="M21.0933 24.2764H10.9067V30.6364H21.0933V24.2764Z" stroke="#FAFAFA" stroke-width="2" stroke-miterlimit="10" stroke-linecap="square"/>
</svg>
