<svg width="121" height="25" viewBox="0 0 121 25" fill="none" xmlns="http://www.w3.org/2000/svg">
<path d="M7.01603 14.823L5.52603 21.275C5.47989 21.4704 5.49374 21.6751 5.56577 21.8625C5.6378 22.0499 5.76467 22.2112 5.9298 22.3253C6.09492 22.4395 6.29064 22.5012 6.49138 22.5024C6.69212 22.5036 6.88855 22.4442 7.05503 22.332L12.5 18.702L17.945 22.332C18.1154 22.4451 18.3162 22.5033 18.5207 22.4988C18.7251 22.4944 18.9232 22.4274 19.0884 22.3069C19.2536 22.1865 19.378 22.0183 19.4448 21.8251C19.5116 21.6318 19.5176 21.4228 19.462 21.226L17.633 14.826L22.169 10.744C22.3143 10.6132 22.4181 10.4427 22.4674 10.2535C22.5168 10.0644 22.5097 9.86488 22.4469 9.67974C22.3841 9.49461 22.2685 9.33193 22.1142 9.21183C21.96 9.09173 21.7739 9.01947 21.579 9.004L15.878 8.55L13.411 3.089C13.3324 2.91316 13.2045 2.76384 13.0428 2.65906C12.8812 2.55429 12.6927 2.49854 12.5 2.49854C12.3074 2.49854 12.1189 2.55429 11.9572 2.65906C11.7956 2.76384 11.6677 2.91316 11.589 3.089L9.12203 8.55L3.42103 9.003C3.22948 9.01818 3.04636 9.08821 2.89358 9.20473C2.7408 9.32125 2.62482 9.47932 2.55952 9.66003C2.49422 9.84074 2.48236 10.0364 2.52537 10.2237C2.56838 10.411 2.66443 10.5819 2.80203 10.716L7.01603 14.823Z" fill="#141414"/>
<path d="M31.016 14.823L29.526 21.275C29.4799 21.4704 29.4937 21.6751 29.5658 21.8625C29.6378 22.0499 29.7647 22.2112 29.9298 22.3253C30.0949 22.4395 30.2906 22.5012 30.4914 22.5024C30.6921 22.5036 30.8886 22.4442 31.055 22.332L36.5 18.702L41.945 22.332C42.1154 22.4451 42.3162 22.5033 42.5207 22.4988C42.7251 22.4944 42.9232 22.4274 43.0884 22.3069C43.2536 22.1865 43.378 22.0183 43.4448 21.8251C43.5116 21.6318 43.5176 21.4228 43.462 21.226L41.633 14.826L46.169 10.744C46.3143 10.6132 46.4181 10.4427 46.4674 10.2535C46.5168 10.0644 46.5097 9.86488 46.4469 9.67974C46.3841 9.49461 46.2685 9.33193 46.1142 9.21183C45.96 9.09173 45.7739 9.01947 45.579 9.004L39.878 8.55L37.411 3.089C37.3324 2.91316 37.2045 2.76384 37.0428 2.65906C36.8812 2.55429 36.6927 2.49854 36.5 2.49854C36.3074 2.49854 36.1189 2.55429 35.9572 2.65906C35.7956 2.76384 35.6677 2.91316 35.589 3.089L33.122 8.55L27.421 9.003C27.2295 9.01818 27.0464 9.08821 26.8936 9.20473C26.7408 9.32125 26.6248 9.47932 26.5595 9.66003C26.4942 9.84074 26.4824 10.0364 26.5254 10.2237C26.5684 10.411 26.6644 10.5819 26.802 10.716L31.016 14.823Z" fill="#141414"/>
<path d="M55.016 14.823L53.526 21.275C53.4799 21.4704 53.4937 21.6751 53.5658 21.8625C53.6378 22.0499 53.7647 22.2112 53.9298 22.3253C54.0949 22.4395 54.2906 22.5012 54.4914 22.5024C54.6921 22.5036 54.8886 22.4442 55.055 22.332L60.5 18.702L65.945 22.332C66.1154 22.4451 66.3162 22.5033 66.5207 22.4988C66.7251 22.4944 66.9232 22.4274 67.0884 22.3069C67.2536 22.1865 67.378 22.0183 67.4448 21.8251C67.5116 21.6318 67.5176 21.4228 67.462 21.226L65.633 14.826L70.169 10.744C70.3143 10.6132 70.4181 10.4427 70.4674 10.2535C70.5168 10.0644 70.5097 9.86488 70.4469 9.67974C70.3841 9.49461 70.2685 9.33193 70.1142 9.21183C69.96 9.09173 69.7739 9.01947 69.579 9.004L63.878 8.55L61.411 3.089C61.3324 2.91316 61.2045 2.76384 61.0428 2.65906C60.8812 2.55429 60.6927 2.49854 60.5 2.49854C60.3074 2.49854 60.1189 2.55429 59.9572 2.65906C59.7956 2.76384 59.6677 2.91316 59.589 3.089L57.122 8.55L51.421 9.003C51.2295 9.01818 51.0464 9.08821 50.8936 9.20473C50.7408 9.32125 50.6248 9.47932 50.5595 9.66003C50.4942 9.84074 50.4824 10.0364 50.5254 10.2237C50.5684 10.411 50.6644 10.5819 50.802 10.716L55.016 14.823Z" fill="#141414"/>
<path d="M79.016 14.823L77.526 21.275C77.4799 21.4704 77.4937 21.6751 77.5658 21.8625C77.6378 22.0499 77.7647 22.2112 77.9298 22.3253C78.0949 22.4395 78.2906 22.5012 78.4914 22.5024C78.6921 22.5036 78.8886 22.4442 79.055 22.332L84.5 18.702L89.945 22.332C90.1154 22.4451 90.3162 22.5033 90.5207 22.4988C90.7251 22.4944 90.9232 22.4274 91.0884 22.3069C91.2536 22.1865 91.378 22.0183 91.4448 21.8251C91.5116 21.6318 91.5176 21.4228 91.462 21.226L89.633 14.826L94.169 10.744C94.3143 10.6132 94.4181 10.4427 94.4674 10.2535C94.5168 10.0644 94.5097 9.86488 94.4469 9.67974C94.3841 9.49461 94.2685 9.33193 94.1142 9.21183C93.96 9.09173 93.7739 9.01947 93.579 9.004L87.878 8.55L85.411 3.089C85.3324 2.91316 85.2045 2.76384 85.0428 2.65906C84.8812 2.55429 84.6927 2.49854 84.5 2.49854C84.3074 2.49854 84.1189 2.55429 83.9572 2.65906C83.7956 2.76384 83.6677 2.91316 83.589 3.089L81.122 8.55L75.421 9.003C75.2295 9.01818 75.0464 9.08821 74.8936 9.20473C74.7408 9.32125 74.6248 9.47932 74.5595 9.66003C74.4942 9.84074 74.4824 10.0364 74.5254 10.2237C74.5684 10.411 74.6644 10.5819 74.802 10.716L79.016 14.823Z" fill="#141414"/>
<path d="M103.016 14.823L101.526 21.275C101.48 21.4704 101.494 21.6751 101.566 21.8625C101.638 22.0499 101.765 22.2112 101.93 22.3253C102.095 22.4395 102.291 22.5012 102.491 22.5024C102.692 22.5036 102.889 22.4442 103.055 22.332L108.5 18.702L113.945 22.332C114.115 22.4451 114.316 22.5033 114.521 22.4988C114.725 22.4944 114.923 22.4274 115.088 22.3069C115.254 22.1865 115.378 22.0183 115.445 21.8251C115.512 21.6318 115.518 21.4228 115.462 21.226L113.633 14.826L118.169 10.744C118.314 10.6132 118.418 10.4427 118.467 10.2535C118.517 10.0644 118.51 9.86488 118.447 9.67974C118.384 9.49461 118.268 9.33193 118.114 9.21183C117.96 9.09173 117.774 9.01947 117.579 9.004L111.878 8.55L109.411 3.089C109.332 2.91316 109.204 2.76384 109.043 2.65906C108.881 2.55429 108.693 2.49854 108.5 2.49854C108.307 2.49854 108.119 2.55429 107.957 2.65906C107.796 2.76384 107.668 2.91316 107.589 3.089L105.122 8.55L99.421 9.003C99.2295 9.01818 99.0464 9.08821 98.8936 9.20473C98.7408 9.32125 98.6248 9.47932 98.5595 9.66003C98.4942 9.84074 98.4824 10.0364 98.5254 10.2237C98.5684 10.411 98.6644 10.5819 98.802 10.716L103.016 14.823ZM105.869 10.497C106.048 10.4829 102.849 10.4233 102.849 10.4233C102.995 10.3202 103.715 19.6388 103.715 19.6388L110.29 17.736L110.299 9.911C110.372 10.0743 110.488 10.2149 110.635 10.318C110.781 10.4211 110.953 10.4829 111.131 10.497L115.103 10.812L111.832 13.756C111.548 14.012 111.435 14.406 111.539 14.774L112.792 19.159L109.056 16.668C108.892 16.5579 108.699 16.4992 108.502 16.4992C108.304 16.4992 108.111 16.5579 107.947 16.668L104.043 19.271L105.093 14.725C105.132 14.5578 105.126 14.3835 105.078 14.2189C105.03 14.0543 104.94 13.9048 104.817 13.785L103.47 11.3911L105.869 10.497Z" fill="#141414"/>
</svg>
