<svg width="121" height="24" viewBox="0 0 121 24" fill="none" xmlns="http://www.w3.org/2000/svg">
<path d="M7.28947 14.3229L5.79947 20.7749C5.75333 20.9703 5.76718 21.1751 5.83922 21.3624C5.91125 21.5498 6.03811 21.7111 6.20324 21.8253C6.36837 21.9394 6.56408 22.0011 6.76482 22.0023C6.96556 22.0035 7.162 21.9441 7.32847 21.8319L12.7735 18.2019L18.2185 21.8319C18.3888 21.945 18.5897 22.0033 18.7941 21.9988C18.9985 21.9943 19.1967 21.9273 19.3619 21.8069C19.5271 21.6864 19.6514 21.5183 19.7182 21.325C19.785 21.1318 19.791 20.9227 19.7355 20.7259L17.9065 14.3259L22.4425 10.2439C22.5877 10.1131 22.6915 9.9426 22.7409 9.75345C22.7903 9.5643 22.7831 9.36482 22.7204 9.17968C22.6576 8.99454 22.5419 8.83187 22.3877 8.71177C22.2334 8.59167 22.0474 8.51941 21.8525 8.50394L16.1515 8.04994L13.6845 2.58894C13.6058 2.4131 13.4779 2.26378 13.3163 2.159C13.1546 2.05423 12.9661 1.99847 12.7735 1.99847C12.5808 1.99847 12.3923 2.05423 12.2307 2.159C12.069 2.26378 11.9411 2.4131 11.8625 2.58894L9.39547 8.04994L3.69447 8.50294C3.50293 8.51812 3.31981 8.58815 3.16703 8.70467C3.01424 8.82119 2.89826 8.97926 2.83296 9.15997C2.76766 9.34068 2.75581 9.53638 2.79882 9.72364C2.84182 9.91091 2.93787 10.0818 3.07547 10.2159L7.28947 14.3229Z" fill="#E9A418"/>
<path d="M31.2895 14.3229L29.7995 20.7749C29.7533 20.9703 29.7672 21.1751 29.8392 21.3624C29.9112 21.5498 30.0381 21.7111 30.2032 21.8253C30.3684 21.9394 30.5641 22.0011 30.7648 22.0023C30.9656 22.0035 31.162 21.9441 31.3285 21.8319L36.7735 18.2019L42.2185 21.8319C42.3888 21.945 42.5897 22.0033 42.7941 21.9988C42.9985 21.9943 43.1967 21.9273 43.3619 21.8069C43.5271 21.6864 43.6514 21.5183 43.7182 21.325C43.785 21.1318 43.791 20.9227 43.7355 20.7259L41.9065 14.3259L46.4425 10.2439C46.5877 10.1131 46.6915 9.9426 46.7409 9.75345C46.7903 9.5643 46.7831 9.36482 46.7204 9.17968C46.6576 8.99454 46.5419 8.83187 46.3877 8.71177C46.2334 8.59167 46.0474 8.51941 45.8525 8.50394L40.1515 8.04994L37.6845 2.58894C37.6058 2.4131 37.4779 2.26378 37.3163 2.159C37.1546 2.05423 36.9661 1.99847 36.7735 1.99847C36.5808 1.99847 36.3923 2.05423 36.2307 2.159C36.069 2.26378 35.9411 2.4131 35.8625 2.58894L33.3955 8.04994L27.6945 8.50294C27.5029 8.51812 27.3198 8.58815 27.167 8.70467C27.0142 8.82119 26.8983 8.97926 26.833 9.15997C26.7677 9.34068 26.7558 9.53638 26.7988 9.72364C26.8418 9.91091 26.9379 10.0818 27.0755 10.2159L31.2895 14.3229Z" fill="#E9A418"/>
<path d="M55.2895 14.3229L53.7995 20.7749C53.7533 20.9703 53.7672 21.1751 53.8392 21.3624C53.9112 21.5498 54.0381 21.7111 54.2032 21.8253C54.3684 21.9394 54.5641 22.0011 54.7648 22.0023C54.9656 22.0035 55.162 21.9441 55.3285 21.8319L60.7735 18.2019L66.2185 21.8319C66.3888 21.945 66.5897 22.0033 66.7941 21.9988C66.9985 21.9943 67.1966 21.9273 67.3619 21.8069C67.5271 21.6864 67.6514 21.5183 67.7182 21.325C67.785 21.1318 67.791 20.9227 67.7355 20.7259L65.9065 14.3259L70.4425 10.2439C70.5877 10.1131 70.6915 9.9426 70.7409 9.75345C70.7903 9.5643 70.7831 9.36482 70.7204 9.17968C70.6576 8.99454 70.5419 8.83187 70.3877 8.71177C70.2334 8.59167 70.0473 8.51941 69.8525 8.50394L64.1515 8.04994L61.6845 2.58894C61.6058 2.4131 61.4779 2.26378 61.3163 2.159C61.1546 2.05423 60.9661 1.99847 60.7735 1.99847C60.5808 1.99847 60.3923 2.05423 60.2307 2.159C60.069 2.26378 59.9411 2.4131 59.8625 2.58894L57.3955 8.04994L51.6945 8.50294C51.5029 8.51812 51.3198 8.58815 51.167 8.70467C51.0142 8.82119 50.8983 8.97926 50.833 9.15997C50.7677 9.34068 50.7558 9.53638 50.7988 9.72364C50.8418 9.91091 50.9379 10.0818 51.0755 10.2159L55.2895 14.3229Z" fill="#E9A418"/>
<path d="M79.2895 14.3229L77.7995 20.7749C77.7533 20.9703 77.7672 21.1751 77.8392 21.3624C77.9112 21.5498 78.0381 21.7111 78.2032 21.8253C78.3684 21.9394 78.5641 22.0011 78.7648 22.0023C78.9656 22.0035 79.162 21.9441 79.3285 21.8319L84.7735 18.2019L90.2185 21.8319C90.3888 21.945 90.5897 22.0033 90.7941 21.9988C90.9985 21.9943 91.1966 21.9273 91.3619 21.8069C91.5271 21.6864 91.6514 21.5183 91.7182 21.325C91.785 21.1318 91.791 20.9227 91.7355 20.7259L89.9065 14.3259L94.4425 10.2439C94.5877 10.1131 94.6915 9.9426 94.7409 9.75345C94.7903 9.5643 94.7831 9.36482 94.7204 9.17968C94.6576 8.99454 94.5419 8.83187 94.3877 8.71177C94.2334 8.59167 94.0473 8.51941 93.8525 8.50394L88.1515 8.04994L85.6845 2.58894C85.6058 2.4131 85.4779 2.26378 85.3163 2.159C85.1546 2.05423 84.9661 1.99847 84.7735 1.99847C84.5808 1.99847 84.3923 2.05423 84.2307 2.159C84.069 2.26378 83.9411 2.4131 83.8625 2.58894L81.3955 8.04994L75.6945 8.50294C75.5029 8.51812 75.3198 8.58815 75.167 8.70467C75.0142 8.82119 74.8983 8.97926 74.833 9.15997C74.7677 9.34068 74.7558 9.53638 74.7988 9.72364C74.8418 9.91091 74.9379 10.0818 75.0755 10.2159L79.2895 14.3229Z" fill="#E9A418"/>
<path d="M103.289 14.3229L101.799 20.7749C101.753 20.9703 101.767 21.1751 101.839 21.3624C101.911 21.5498 102.038 21.7111 102.203 21.8253C102.368 21.9394 102.564 22.0011 102.765 22.0023C102.966 22.0035 103.162 21.9441 103.328 21.8319L108.773 18.2019L114.218 21.8319C114.389 21.945 114.59 22.0033 114.794 21.9988C114.999 21.9943 115.197 21.9273 115.362 21.8069C115.527 21.6864 115.651 21.5183 115.718 21.325C115.785 21.1318 115.791 20.9227 115.735 20.7259L113.906 14.3259L118.442 10.2439C118.588 10.1131 118.691 9.9426 118.741 9.75345C118.79 9.5643 118.783 9.36482 118.72 9.17968C118.658 8.99454 118.542 8.83187 118.388 8.71177C118.233 8.59167 118.047 8.51941 117.852 8.50394L112.151 8.04994L109.684 2.58894C109.606 2.4131 109.478 2.26378 109.316 2.159C109.155 2.05423 108.966 1.99847 108.773 1.99847C108.581 1.99847 108.392 2.05423 108.231 2.159C108.069 2.26378 107.941 2.4131 107.862 2.58894L105.395 8.04994L99.6945 8.50294C99.5029 8.51812 99.3198 8.58815 99.167 8.70467C99.0142 8.82119 98.8983 8.97926 98.833 9.15997C98.7677 9.34068 98.7558 9.53638 98.7988 9.72364C98.8418 9.91091 98.9379 10.0818 99.0755 10.2159L103.289 14.3229ZM106.142 9.99694C106.321 9.98288 103.122 9.92328 103.122 9.92328C103.269 9.82018 103.988 19.1388 103.988 19.1388L110.563 17.236L110.572 9.41094C110.646 9.57427 110.762 9.71485 110.908 9.81796C111.055 9.92106 111.226 9.98288 111.404 9.99694L115.376 10.3119L112.105 13.2559C111.821 13.5119 111.708 13.9059 111.812 14.2739L113.065 18.6589L109.329 16.1679C109.165 16.0579 108.972 15.9991 108.775 15.9991C108.577 15.9991 108.384 16.0579 108.22 16.1679L104.316 18.7709L105.366 14.2249C105.405 14.0577 105.4 13.8835 105.351 13.7188C105.303 13.5542 105.213 13.4048 105.09 13.2849L103.743 10.8911L106.142 9.99694Z" fill="#E9A418"/>
</svg>
