<svg width="49" height="49" viewBox="0 0 49 49" fill="none" xmlns="http://www.w3.org/2000/svg">
<path d="M22.3148 17.1862V16.3362C20.8482 15.9029 19.6482 15.0779 18.7148 13.8612C17.7815 12.6446 17.3148 11.2362 17.3148 9.63623C17.3148 7.7029 17.9982 6.0529 19.3648 4.68623C20.7315 3.31956 22.3815 2.63623 24.3148 2.63623C26.2482 2.63623 27.8982 3.31956 29.2648 4.68623C30.6315 6.0529 31.3148 7.7029 31.3148 9.63623C31.3148 11.2362 30.8482 12.6446 29.9148 13.8612C28.9815 15.0779 27.7815 15.9029 26.3148 16.3362V17.1862L40.3148 25.2362C40.9482 25.6029 41.4398 26.0946 41.7898 26.7112C42.1398 27.3279 42.3148 28.0029 42.3148 28.7362V32.5362C42.3148 33.2696 42.1398 33.9446 41.7898 34.5612C41.4398 35.1779 40.9482 35.6696 40.3148 36.0362L26.3148 44.0862C25.6815 44.4529 25.0148 44.6362 24.3148 44.6362C23.6148 44.6362 22.9482 44.4529 22.3148 44.0862L8.31482 36.0362C7.68149 35.6696 7.18982 35.1779 6.83982 34.5612C6.48982 33.9446 6.31482 33.2696 6.31482 32.5362V28.7362C6.31482 28.0029 6.48982 27.3279 6.83982 26.7112C7.18982 26.0946 7.68149 25.6029 8.31482 25.2362L22.3148 17.1862ZM22.3148 36.0862L10.3148 29.1862V32.5362L24.3148 40.6362L38.3148 32.5362V29.1862L26.3148 36.0862C25.6815 36.4529 25.0148 36.6362 24.3148 36.6362C23.6148 36.6362 22.9482 36.4529 22.3148 36.0862ZM22.3148 28.6362V21.7862L13.9148 26.6362L24.3148 32.6362L34.7148 26.6362L26.3148 21.7862V28.6362H22.3148ZM24.3148 12.6362C25.1482 12.6362 25.8565 12.3446 26.4398 11.7612C27.0232 11.1779 27.3148 10.4696 27.3148 9.63623C27.3148 8.8029 27.0232 8.09456 26.4398 7.51123C25.8565 6.9279 25.1482 6.63623 24.3148 6.63623C23.4815 6.63623 22.7732 6.9279 22.1898 7.51123C21.6065 8.09456 21.3148 8.8029 21.3148 9.63623C21.3148 10.4696 21.6065 11.1779 22.1898 11.7612C22.7732 12.3446 23.4815 12.6362 24.3148 12.6362Z" fill="#FAFAFA"/>
</svg>
