<svg width="49" height="49" viewBox="0 0 49 49" fill="none" xmlns="http://www.w3.org/2000/svg">
<path d="M12.8434 40.6362C11.1768 40.6362 9.76011 40.0529 8.59344 38.8862C7.42678 37.7196 6.84344 36.3029 6.84344 34.6362H2.84344V12.6362C2.84344 11.5362 3.23544 10.5949 4.01944 9.81223C4.80211 9.02823 5.74344 8.63623 6.84344 8.63623H34.8434V16.6362H40.8434L46.8434 24.6362V34.6362H42.8434C42.8434 36.3029 42.2601 37.7196 41.0934 38.8862C39.9268 40.0529 38.5101 40.6362 36.8434 40.6362C35.1768 40.6362 33.7601 40.0529 32.5934 38.8862C31.4268 37.7196 30.8434 36.3029 30.8434 34.6362H18.8434C18.8434 36.3029 18.2601 37.7196 17.0934 38.8862C15.9268 40.0529 14.5101 40.6362 12.8434 40.6362ZM12.8434 36.6362C13.4101 36.6362 13.8854 36.4442 14.2694 36.0602C14.6521 35.6776 14.8434 35.2029 14.8434 34.6362C14.8434 34.0696 14.6521 33.5949 14.2694 33.2122C13.8854 32.8282 13.4101 32.6362 12.8434 32.6362C12.2768 32.6362 11.8014 32.8282 11.4174 33.2122C11.0348 33.5949 10.8434 34.0696 10.8434 34.6362C10.8434 35.2029 11.0348 35.6776 11.4174 36.0602C11.8014 36.4442 12.2768 36.6362 12.8434 36.6362ZM6.84344 30.6362H8.44344C9.01011 30.0362 9.66011 29.5529 10.3934 29.1862C11.1268 28.8196 11.9434 28.6362 12.8434 28.6362C13.7434 28.6362 14.5601 28.8196 15.2934 29.1862C16.0268 29.5529 16.6768 30.0362 17.2434 30.6362H30.8434V12.6362H6.84344V30.6362ZM36.8434 36.6362C37.4101 36.6362 37.8848 36.4442 38.2674 36.0602C38.6514 35.6776 38.8434 35.2029 38.8434 34.6362C38.8434 34.0696 38.6514 33.5949 38.2674 33.2122C37.8848 32.8282 37.4101 32.6362 36.8434 32.6362C36.2768 32.6362 35.8021 32.8282 35.4194 33.2122C35.0354 33.5949 34.8434 34.0696 34.8434 34.6362C34.8434 35.2029 35.0354 35.6776 35.4194 36.0602C35.8021 36.4442 36.2768 36.6362 36.8434 36.6362ZM34.8434 26.6362H43.3434L38.8434 20.6362H34.8434V26.6362Z" fill="#FAFAFA"/>
</svg>
