<svg width="321" height="320" viewBox="0 0 321 320" fill="none" xmlns="http://www.w3.org/2000/svg">
<path fill-rule="evenodd" clip-rule="evenodd" d="M152.703 55.7644C134.477 57.6575 117.605 64.4487 103.844 75.4296C100.586 78.0301 93.0995 85.4744 90.4771 88.7216C82.3688 98.7627 76.251 111.439 73.4188 124.067C71.7835 131.359 71.5403 133.984 71.5365 144.391C71.5328 154.757 71.7551 157.141 73.4428 164.839C78.8469 189.489 96.5312 212.174 119.575 224.016C128.982 228.85 137.42 231.528 148.796 233.291C153.839 234.072 165.949 234.217 171.122 233.558C192.645 230.815 213.185 220.065 227.37 204.119C239.505 190.477 246.55 175.799 249.367 158.288C250.187 153.196 250.495 142.11 249.973 136.552C247.333 108.472 231.824 83.6159 207.746 68.8766C196.896 62.2346 185.371 58.0999 172.814 56.3435C169.397 55.8658 155.562 55.4672 152.703 55.7644ZM193.598 88.4456C191.869 89.2679 190.19 90.9897 189.449 92.6996C189.17 93.3408 188.959 94.7444 188.951 96.0004C188.934 98.7455 190.003 101.184 192.712 104.586C195.786 108.445 203.051 114.821 206.244 116.461C208.285 117.509 211.196 117.499 213.277 116.436C215.009 115.551 216.598 113.506 217.231 111.347C217.829 109.312 217.688 105.647 216.934 103.57C214.959 98.1352 207.976 91.1536 202.061 88.7C199.272 87.5437 195.719 87.4366 193.598 88.4456ZM265.718 170.733C262.757 171.516 259.963 174.103 259.16 176.805C258.605 178.672 258.512 182.123 259.035 181.386C259.294 181.021 259.329 181.096 259.193 181.727C258.959 182.809 260.29 185.449 261.689 186.677C263.795 188.527 265.148 189.027 268.059 189.031C270.349 189.034 270.961 188.913 272.526 188.144C275.901 186.487 277.964 182.84 277.661 179.066C277.291 174.45 273.447 170.807 268.711 170.583C267.579 170.53 266.233 170.597 265.718 170.733ZM277.137 178.758C277.152 179.122 277.226 179.196 277.326 178.947C277.416 178.721 277.405 178.452 277.301 178.348C277.198 178.245 277.124 178.429 277.137 178.758ZM93.6655 225.039C91.5476 226.574 85.3546 232.378 82.0756 235.903C78.2094 240.059 75.5573 243.233 72.1946 247.727C68.6824 252.421 68.2541 253.184 68.2541 254.742C68.2541 257.4 71.2187 259.062 73.5134 257.69C73.9692 257.418 75.1849 256.05 76.2151 254.65C82.2536 246.447 88.9661 238.87 95.0408 233.398C97.273 231.388 99.2698 229.331 99.4783 228.828C100.892 225.414 96.8159 222.757 93.6655 225.039ZM120.558 238.032C117.723 239.51 111.254 243.873 107.138 247.085C100.732 252.083 93.4286 259.118 91.6975 261.957C89.9826 264.77 91.9625 267.888 95.1888 267.455C96.2702 267.31 96.9071 266.8 100.367 263.312C107.165 256.46 113.777 251.062 121.687 245.905C125.931 243.138 126.635 242.38 126.635 240.574C126.635 239.083 126.041 238.087 124.758 237.423C123.45 236.747 122.86 236.833 120.558 238.032ZM150.265 248.683C141.621 251.055 131.15 256.062 124.359 261.07C121.146 263.44 120.494 265.36 122.238 267.312C123.052 268.223 123.327 268.332 124.821 268.332C126.342 268.332 126.764 268.157 129.51 266.378C135.627 262.415 142.947 259.031 152.023 255.971C156.115 254.592 157.379 253.793 157.739 252.359C158.062 251.069 157.572 249.525 156.571 248.683C155.363 247.667 153.971 247.667 150.265 248.683Z" fill="#D51717"/>
<path fill-rule="evenodd" clip-rule="evenodd" d="M154.576 55.7684C138.432 56.8574 121.539 62.868 108.413 72.1936C88.2932 86.4878 75.7286 107.045 72.109 131.59C71.4047 136.365 71.3126 150.803 71.9544 155.785C74.4367 175.054 82.5575 192.051 95.9991 206.111C110.876 221.671 129.501 230.856 151.298 233.381C156.876 234.027 168.345 233.859 173.464 233.057C192.222 230.116 209.375 221.593 222.998 208.442C240.065 191.967 249.38 171.124 250.159 147.668C251.32 112.688 232.322 80.9891 200.689 65.1246C188.413 58.9675 176.517 56.0781 162.161 55.7662C159.019 55.6979 155.606 55.6988 154.576 55.7684ZM154.108 63.5583C153.507 63.6295 151.68 63.833 150.049 64.0107C135.924 65.5495 121.062 71.8543 109.152 81.3606C105.781 84.0511 99.9327 89.9088 97.1867 93.3458C89.9912 102.351 84.3695 113.585 81.7205 124.253C77.9483 139.444 78.6167 156.124 83.6031 171.238C85.1815 176.023 89.0709 183.915 92.2184 188.721C108.034 212.871 134.76 226.857 163.317 225.929C172.033 225.645 178.225 224.539 186.576 221.773C211.11 213.645 230.934 193.706 238.525 169.521C241.202 160.993 242.294 152.592 242.056 142.36C241.752 129.344 239.462 119.867 233.87 108.487C226.002 92.476 213.68 80.3098 197.034 72.1165C185.285 66.3334 174.76 63.7878 161.6 63.5464C158.08 63.4821 154.709 63.4874 154.108 63.5583ZM196.804 87.3226C197.192 87.3972 197.754 87.3944 198.053 87.3164C198.351 87.2383 198.034 87.1771 197.347 87.1806C196.66 87.184 196.416 87.248 196.804 87.3226ZM190.923 89.8336L190.166 90.6921L191.025 89.9354C191.497 89.5189 191.883 89.1327 191.883 89.0768C191.883 88.8318 191.63 89.0312 190.923 89.8336ZM207.181 91.2784C207.181 91.343 207.427 91.5891 207.727 91.8248C208.222 92.2128 208.233 92.2019 207.845 91.7068C207.437 91.1866 207.181 91.0215 207.181 91.2784ZM209.665 93.4238C210.431 94.2396 211.098 94.9068 211.148 94.9068C211.383 94.9068 211.135 94.6264 209.756 93.3327L208.273 91.9409L209.665 93.4238ZM188.786 93.5278C188.801 93.8915 188.875 93.9655 188.975 93.7167C189.065 93.4913 189.054 93.2218 188.95 93.1182C188.846 93.0145 188.773 93.1987 188.786 93.5278ZM188.546 95.9994C188.547 97.0297 188.606 97.4134 188.675 96.8524C188.745 96.2913 188.744 95.4484 188.672 94.9792C188.601 94.51 188.544 94.9692 188.546 95.9994ZM211.552 95.3167C211.552 95.3704 212.008 95.8271 212.566 96.3313L213.581 97.2482L212.664 96.2336C211.809 95.2879 211.552 95.0753 211.552 95.3167ZM213.737 97.8345C213.737 97.8991 213.983 98.1452 214.283 98.3809C214.778 98.7689 214.789 98.758 214.401 98.2629C213.993 97.7427 213.737 97.5776 213.737 97.8345ZM188.786 98.5229C188.801 98.8866 188.875 98.9606 188.975 98.7118C189.065 98.4864 189.054 98.217 188.95 98.1133C188.846 98.0097 188.773 98.1939 188.786 98.5229ZM189.386 100.102C189.386 100.27 189.604 100.68 189.871 101.013C190.329 101.584 190.335 101.574 189.985 100.838C189.53 99.8828 189.386 99.7058 189.386 100.102ZM216.908 102.868C216.907 103.039 217.096 103.672 217.327 104.273C217.558 104.874 217.752 105.155 217.758 104.897C217.763 104.639 217.574 104.007 217.338 103.492C217.103 102.977 216.909 102.696 216.908 102.868ZM192.508 105.015C192.508 105.08 192.754 105.326 193.054 105.561C193.549 105.949 193.56 105.938 193.172 105.443C192.764 104.923 192.508 104.758 192.508 105.015ZM217.9 108.019C217.9 109.307 217.956 109.834 218.023 109.19C218.09 108.546 218.09 107.492 218.023 106.848C217.956 106.204 217.9 106.731 217.9 108.019ZM194.069 106.868C194.069 106.922 194.525 107.378 195.083 107.883L196.098 108.799L195.181 107.785C194.326 106.839 194.069 106.627 194.069 106.868ZM217.508 111.011C217.523 111.374 217.597 111.448 217.696 111.2C217.787 110.974 217.775 110.705 217.672 110.601C217.568 110.497 217.494 110.682 217.508 111.011ZM217.054 112.246C216.752 113.031 216.841 113.233 217.209 112.6C217.391 112.287 217.475 111.965 217.394 111.885C217.314 111.804 217.16 111.967 217.054 112.246ZM126.395 240.702C126.395 241.303 126.459 241.549 126.537 241.248C126.616 240.948 126.616 240.456 126.537 240.156C126.459 239.855 126.395 240.101 126.395 240.702Z" fill="#D64040"/>
</svg>
