<svg width="320" height="320" viewBox="0 0 320 320" fill="none" xmlns="http://www.w3.org/2000/svg">
<path fill-rule="evenodd" clip-rule="evenodd" d="M154.178 56.6621C149.147 57.6159 144.422 59.8125 140.345 63.0927C137.544 65.3462 135.877 67.1766 133.976 70.0871C123.687 85.8393 129.91 107.135 147.163 115.217C151.721 117.352 154.239 117.855 160.313 117.842C166.423 117.829 167.981 117.514 172.527 115.371C176.318 113.583 178.782 111.868 181.497 109.126C185.718 104.864 188.44 100.167 190.047 94.3706C190.804 91.6374 190.892 90.8079 190.879 86.4774C190.867 82.4916 190.743 81.1979 190.179 79.1408C187.257 68.4987 178.492 60.0157 167.392 57.0855C164.204 56.2438 157.513 56.0296 154.178 56.6621ZM80.7527 84.307C69.3095 86.2276 60.4641 94.5639 57.4149 106.302C56.3737 110.309 56.3662 116.697 57.3983 120.507C60.3835 131.527 68.3386 139.413 79.1867 142.106C83.0224 143.058 89.2775 143.05 92.8784 142.088C95.9173 141.276 100.606 139.06 103.163 137.227C107.128 134.386 111.241 129.367 113.159 125.032C115.868 118.904 116.255 110.508 114.113 104.328C112.389 99.3548 110.275 95.8826 106.946 92.5543C102.571 88.1814 97.207 85.3476 91.338 84.3079C89.2154 83.9321 82.9902 83.9314 80.7527 84.307ZM228.099 84.4722C218.406 86.6357 210.611 92.8939 206.98 101.426C205.184 105.648 204.663 108.351 204.688 113.326C204.707 117.133 204.837 118.328 205.504 120.841C208.63 132.618 218.385 141.158 230.478 142.704C236.796 143.511 244.204 141.713 249.847 138.002C261.724 130.191 266.345 114.781 260.773 101.567C257.441 93.6663 249.997 87.3128 241.171 84.8362C238.181 83.9973 231.107 83.8003 228.099 84.4722ZM142.506 121.776C139.365 122.124 134.847 123.262 131.591 124.526C124.469 127.288 116.425 133.863 111.964 140.567C110.257 143.132 107.395 148.75 107.395 149.535C107.395 149.793 107.158 149.856 106.693 149.719C106.307 149.605 104.656 149.141 103.025 148.688L100.059 147.865L85.7425 147.741C73.6706 147.637 70.9691 147.696 68.5097 148.115C52.8387 150.786 40.7337 162.448 37.7428 177.756C37.1675 180.701 37.1444 182.323 37.224 213.815L37.3076 246.79L38.1768 248.439C39.8957 251.702 42.5609 253.584 46.2614 254.15C47.4577 254.333 59.9084 254.419 77.8883 254.367L107.542 254.282L107.601 252.565C107.98 241.511 109.969 234.634 114.987 227.027C120.723 218.333 128.561 212.178 137.366 209.453C138.654 209.054 139.757 208.696 139.818 208.657C139.879 208.617 138.988 207.705 137.838 206.629C130.271 199.551 126.945 188.158 129.147 176.858C130.175 171.58 133.063 166.161 137.197 161.756C145.747 152.643 160.109 149.802 172.262 154.818C179.717 157.895 186.119 164.455 189.216 172.188C190.914 176.429 191.465 179.895 191.273 185.131C191.095 189.975 190.659 192.267 189.171 196.191C187.531 200.515 184.334 205 181.269 207.277C180.474 207.867 179.825 208.429 179.825 208.526C179.826 208.622 181.125 209.111 182.713 209.611C192.416 212.668 201.386 220.205 206.522 229.619C210.046 236.076 211.897 243.218 212.066 251.004L212.137 254.282H243.044H273.952L275.825 253.53C278.333 252.523 280.957 249.871 281.931 247.36L282.636 245.541L282.587 213.541C282.555 192.998 282.418 180.647 282.205 179.043C281.77 175.774 280.041 170.629 278.307 167.447C273.743 159.074 265.783 152.456 256.625 149.421C251.839 147.835 248.578 147.601 233.269 147.742C219.443 147.87 219.291 147.879 216.352 148.677C214.72 149.12 213.162 149.572 212.888 149.682C212.497 149.84 212.138 149.28 211.202 147.046C206.822 136.603 196.638 127.366 185.425 123.668C184.299 123.297 181.981 122.697 180.274 122.335C177.387 121.723 176.052 121.671 161.093 121.588C152.25 121.538 143.886 121.623 142.506 121.776ZM154.381 161.539C146.285 163.814 140.476 169.13 137.801 176.713C136.724 179.766 136.444 185.069 137.175 188.565C137.779 191.456 139.944 195.902 141.959 198.392C148.061 205.93 158.317 208.747 167.782 205.484C173.661 203.458 179.19 198.159 181.591 192.25C186.444 180.307 179.951 166.643 167.278 162.128C165.303 161.425 164.384 161.3 160.469 161.207C157.241 161.131 155.494 161.226 154.381 161.539ZM144.234 215.715C140.758 216.461 139.04 217.066 135.698 218.719C125.975 223.527 119.124 232.278 116.603 243.108C115.99 245.741 115.513 251.064 115.516 255.219C115.518 258.164 115.623 258.877 116.251 260.227C117.085 262.018 118.396 263.25 120.11 263.854C121.804 264.452 197.724 264.454 199.744 263.857C201.48 263.343 203.289 261.526 203.844 259.738C204.143 258.777 204.26 256.975 204.219 253.97C204.053 241.691 200.7 232.763 193.599 225.69C188.342 220.453 181.71 216.894 174.752 215.574C172.773 215.199 169.665 215.106 159.576 215.124C148.529 215.143 146.545 215.219 144.234 215.715Z" fill="#275AC7"/>
<path fill-rule="evenodd" clip-rule="evenodd" d="M155.863 56.5079C142.212 58.4261 131.733 68.6579 129.551 82.2006C129.039 85.3729 129.331 91.1269 130.177 94.562C132.603 104.419 140.567 113.042 150.326 116.379C165.139 121.445 180.854 114.51 187.768 99.8565C189.77 95.6129 190.457 92.7279 190.657 87.7271C190.913 81.315 189.84 76.8986 186.775 71.7449C182.277 64.1842 174.772 58.737 166.436 56.9834C163.655 56.3983 158.343 56.1595 155.863 56.5079ZM82.5757 84.1775C74.9765 85.3747 70.4023 87.5848 65.5383 92.4101C59.9656 97.9381 57.2632 104.204 56.9207 112.391C56.7865 115.602 56.8705 116.801 57.3943 119.159C59.1979 127.277 63.6888 133.912 70.2674 138.179C76.9106 142.489 85.3779 143.856 93.1738 141.877C95.5255 141.28 100.209 139.07 102.595 137.432C104.698 135.987 108.628 132.034 110.32 129.662C115.457 122.461 116.708 111.779 113.433 103.079C110.025 94.0228 102.538 87.2239 93.4226 84.9064C91.044 84.3017 84.5556 83.8659 82.5757 84.1775ZM138.771 122.514C131.267 124.117 125.418 127.095 119.143 132.507C115.258 135.859 110.571 142.388 108.494 147.342C107.84 148.901 107.172 150.07 106.972 150.004C100.762 147.979 97.9229 147.682 84.6708 147.675C78.6111 147.671 72.2892 147.816 70.622 147.996C53.1029 149.89 39.1799 163.802 37.5197 181.073C37.363 182.705 37.2509 197.948 37.2709 214.947C37.3049 243.807 37.3442 245.947 37.8637 247.259C38.6448 249.232 40.3722 251.487 41.7868 252.38C44.6349 254.178 43.614 254.127 76.8126 254.127H107.307L107.481 249.991C107.68 245.287 108.278 241.858 109.645 237.581C113.824 224.509 124.799 213.246 137.054 209.454C138.342 209.055 139.445 208.696 139.506 208.657C139.566 208.618 138.683 207.713 137.544 206.647C133.765 203.113 130.815 197.936 129.191 191.993C128.56 189.683 128.468 188.632 128.468 183.727C128.468 177.167 128.962 174.743 131.266 169.991C136.21 159.792 145.594 153.36 156.968 152.372C165.18 151.659 172.683 153.823 179.351 158.826C184.369 162.593 187.847 167.539 190.272 174.361C190.441 174.836 190.664 174.424 191.2 172.644C193.923 163.605 200.825 155.704 209.936 151.195L212.198 150.076L211.614 148.539C210.687 146.097 208.903 142.712 207.206 140.176C205.295 137.317 199.499 131.471 196.527 129.405C193.631 127.391 188.565 124.822 185.542 123.833C179.782 121.95 179.962 121.964 160.312 121.869C142.326 121.781 142.182 121.786 138.771 122.514ZM237.815 142.256C238.029 142.343 238.381 142.343 238.595 142.256C238.81 142.169 238.634 142.098 238.205 142.098C237.776 142.098 237.6 142.169 237.815 142.256ZM231.883 142.591C232.785 142.654 234.259 142.654 235.161 142.591C236.063 142.528 235.325 142.477 233.522 142.477C231.719 142.477 230.981 142.528 231.883 142.591ZM231.59 148.194C231.816 148.284 232.085 148.273 232.189 148.169C232.292 148.066 232.108 147.992 231.779 148.005C231.415 148.02 231.341 148.094 231.59 148.194ZM158.365 161.317C158.84 161.389 159.542 161.387 159.926 161.313C160.31 161.239 159.922 161.18 159.063 161.182C158.205 161.185 157.891 161.245 158.365 161.317ZM161.034 161.306C161.259 161.396 161.529 161.385 161.633 161.282C161.736 161.178 161.552 161.104 161.223 161.118C160.859 161.133 160.785 161.207 161.034 161.306ZM156.039 206.262C156.264 206.353 156.534 206.341 156.637 206.238C156.741 206.134 156.557 206.06 156.228 206.074C155.864 206.089 155.79 206.163 156.039 206.262ZM163.512 206.256C163.727 206.343 164.078 206.343 164.293 206.256C164.508 206.169 164.332 206.098 163.903 206.098C163.473 206.098 163.298 206.169 163.512 206.256ZM158.51 206.587C159.064 206.656 160.048 206.657 160.696 206.589C161.343 206.521 160.89 206.465 159.688 206.464C158.486 206.462 157.956 206.518 158.51 206.587ZM149.313 215.319C149.617 215.398 150.039 215.393 150.25 215.308C150.461 215.222 150.213 215.157 149.698 215.164C149.183 215.17 149.01 215.24 149.313 215.319ZM151.181 215.318C151.481 215.397 151.973 215.397 152.273 215.318C152.574 215.239 152.328 215.175 151.727 215.175C151.126 215.175 150.88 215.239 151.181 215.318ZM153.99 215.318C154.291 215.397 154.783 215.397 155.083 215.318C155.383 215.239 155.138 215.175 154.537 215.175C153.936 215.175 153.69 215.239 153.99 215.318ZM156.492 215.327C156.967 215.398 157.669 215.396 158.053 215.323C158.437 215.249 158.049 215.19 157.19 215.192C156.332 215.195 156.018 215.255 156.492 215.327ZM160.24 215.319C160.544 215.398 160.965 215.393 161.177 215.308C161.388 215.222 161.14 215.157 160.624 215.164C160.109 215.17 159.936 215.24 160.24 215.319ZM144.8 215.94C145.025 216.031 145.295 216.019 145.398 215.916C145.502 215.812 145.318 215.738 144.989 215.752C144.625 215.767 144.551 215.841 144.8 215.94ZM228.293 254.049C236.492 254.095 249.908 254.095 258.107 254.049C266.306 254.003 259.598 253.965 243.2 253.965C226.802 253.965 220.094 254.003 228.293 254.049ZM120.449 263.706C120.674 263.796 120.944 263.785 121.047 263.682C121.151 263.578 120.967 263.504 120.638 263.518C120.274 263.533 120.2 263.607 120.449 263.706ZM140.902 264.039C151.519 264.085 168.799 264.085 179.302 264.039C189.806 263.994 181.12 263.956 160 263.956C138.88 263.956 130.286 263.994 140.902 264.039Z" fill="#3C68C7"/>
</svg>
