<svg width="321" height="320" viewBox="0 0 321 320" fill="none" xmlns="http://www.w3.org/2000/svg">
<path fill-rule="evenodd" clip-rule="evenodd" d="M151.908 60.1527C141.18 61.3277 130.124 64.6127 120.419 69.5096C119.155 70.1474 117.785 71.0315 117.375 71.4746C116.057 72.8983 116.58 75.6174 118.356 76.5683C119.739 77.3096 121.276 77.0586 124.121 75.6271C127.786 73.7824 134.535 71.1927 138.639 70.0565C147.562 67.5865 154.586 66.7321 163.927 66.9808C177.412 67.3399 188.558 70.0871 201.467 76.234C206.676 78.714 207.603 78.8768 209.065 77.5693C210.495 76.2902 210.68 74.2658 209.497 72.8574C207.421 70.389 194.396 64.8868 185 62.5102C174.749 59.9171 162.212 59.024 151.908 60.1527ZM82.3567 61.2355C75.6804 63.0486 70.7843 67.6396 68.8911 73.8621C68.0831 76.5174 68.012 81.0602 68.7341 83.8624C71.1517 93.2427 80.7161 99.2211 90.5905 97.5243C97.2481 96.3802 103.206 90.9202 104.939 84.3761C105.634 81.7518 105.646 77.3352 104.966 74.7274C103.409 68.7568 98.5259 63.5608 92.5905 61.5593C89.6515 60.568 85.3188 60.4311 82.3567 61.2355ZM233.499 65.309C230.766 66.0261 229.103 66.853 226.738 68.6715C222.247 72.1246 219.647 77.3715 219.659 82.9574C219.671 88.4768 221.404 92.7774 225.082 96.4168C229.065 100.358 232.765 101.733 238.698 101.478C244.361 101.235 247.776 99.6952 251.558 95.6815C255.282 91.7283 257 87.1783 256.711 82.0324C256.518 78.6065 255.753 76.3199 253.83 73.4252C249.337 66.659 241.014 63.3371 233.499 65.309ZM80.7783 103.457C68.9657 105.56 59.874 114.981 58.0514 127.008C57.3958 131.336 57.5731 133.529 58.667 134.624L59.5118 135.47L78.2295 135.555C94.0503 135.627 97.1154 135.57 98.0351 135.185C99.0417 134.765 99.43 134.117 103.194 126.587C106.102 120.767 107.264 118.129 107.264 117.342C107.264 115.864 105.811 113.363 103.461 110.796C100.565 107.633 97.0511 105.428 92.7466 104.074C90.2446 103.287 83.6464 102.947 80.7783 103.457ZM156.278 104.054C141.595 105.285 127.629 112.76 119.06 123.975C113.39 131.395 110.312 138.526 108.771 147.814C108.25 150.951 108.259 161.356 108.785 164.532C111.038 178.135 118.33 190.177 129.174 198.2C142.438 208.013 161.117 210.999 177.195 205.876C189.818 201.854 201.335 192.169 207.591 180.314C214.026 168.12 215.411 153.457 211.346 140.577C207.435 128.183 198.351 117.269 186.319 110.51C177.62 105.622 166.38 103.206 156.278 104.054ZM233.078 107.344C226.803 108.771 221.176 112.813 218.012 118.168C217.37 119.254 216.844 120.473 216.844 120.875C216.844 121.931 218.399 125.437 221.154 130.59C223.128 134.284 223.75 135.189 224.644 135.668C225.671 136.218 226.77 136.251 244.258 136.251H262.785L263.697 135.338C264.542 134.492 264.61 134.251 264.61 132.106C264.61 128.065 262.816 122.673 260.194 118.831C256.681 113.685 250.614 109.392 244.568 107.775C241.474 106.948 235.764 106.733 233.078 107.344ZM66.0167 146.408C65.5672 146.653 64.9812 147.315 64.7143 147.88C63.9266 149.548 63.4489 156.089 63.6665 162.226C64.0799 173.881 66.0863 183.8 70.0041 193.558C72.2581 199.171 73.1701 200.889 74.1716 201.408C76.6894 202.711 79.753 201.003 79.7764 198.282C79.7808 197.767 79.4221 196.571 78.9791 195.626C75.5306 188.266 73.0074 179.474 71.8039 170.626C71.1601 165.892 70.9151 156.741 71.32 152.537C71.6188 149.432 71.5982 148.843 71.1576 147.914C70.2985 146.101 67.8818 145.394 66.0167 146.408ZM253.683 150.506C251.242 151.371 250.739 152.359 251.01 155.752C251.254 158.811 250.504 168.444 249.618 173.638C249.27 175.677 248.557 178.941 248.033 180.893C242.332 202.144 230.497 219.271 213.41 230.995C210.066 233.29 204.688 236.374 204.448 236.135C204.361 236.048 204.798 232.98 205.419 229.317C206.797 221.183 206.806 220.842 205.652 219.688C203.965 217.999 201.076 218.209 199.832 220.11C199.054 221.298 196.257 237.688 196.202 241.383C196.166 243.808 196.569 244.498 198.581 245.454C201.792 246.979 211.432 249.617 218.082 250.791C220.024 251.135 220.581 251.133 221.417 250.783C223.169 250.051 223.884 247.781 222.938 245.951C222.388 244.886 221.422 244.514 215.654 243.145C209.096 241.588 209.28 241.864 213.274 239.59C220.199 235.645 224.566 232.298 230.452 226.423C235.373 221.511 238.972 217.138 242.296 212.032C248.24 202.9 252.096 194.357 254.78 184.376C255.97 179.95 257.262 173.407 257.588 170.157C257.709 168.954 257.861 167.695 257.925 167.359C257.99 167.022 258.13 163.929 258.237 160.484C258.451 153.598 258.245 152.264 256.805 151.206C255.958 150.584 254.43 150.241 253.683 150.506ZM97.0945 196.25C91.4225 197.04 86.207 200.941 83.5153 206.407C80.0499 213.444 81.3683 221.332 86.9413 226.903C90.6814 230.642 94.5261 232.189 100.083 232.189C106.143 232.189 110.762 230.047 114.847 225.344C120.521 218.809 120.522 209.864 114.847 203.048C110.534 197.867 103.852 195.309 97.0945 196.25ZM96.8051 237.709C87.1011 238.95 78.6834 244.673 74.9455 252.57C73.6536 255.299 72.7573 258.668 72.4517 261.943C72.2282 264.337 72.2328 264.359 73.1747 265.302L74.1229 266.251H99.5858H125.049L126.06 265.347C126.957 264.545 127.063 264.276 127.006 262.963C126.883 260.131 124.877 254.301 122.924 251.095C119.032 244.711 111.895 239.698 104.706 238.301C102.205 237.816 98.2762 237.521 96.8051 237.709ZM130.401 240.489C128.465 242.119 128.893 245.021 131.246 246.222C134.721 247.996 143.689 250.409 150.503 251.402C157.973 252.491 167.946 252.495 175.699 251.412C181.986 250.534 183.554 250.041 184.234 248.723C184.824 247.581 184.807 246.753 184.166 245.401C183.246 243.46 182.356 243.306 176.31 244.038C166.426 245.234 159.279 245.193 150.034 243.886C146.133 243.334 138.708 241.543 135.837 240.461C133.142 239.446 131.629 239.454 130.401 240.489Z" fill="#E9A418"/>
<path fill-rule="evenodd" clip-rule="evenodd" d="M156.59 59.8989C150.503 60.1748 142.695 61.5298 136.146 63.4464C129.141 65.4967 119.394 69.7026 117.687 71.412C116.363 72.7367 116.804 75.5264 118.473 76.3905C119.962 77.1611 120.891 76.9808 124.733 75.1742C137.059 69.3789 148.221 66.8508 161.429 66.8626C176.067 66.8758 187.889 69.6114 201.645 76.1692C206.348 78.4117 206.637 78.507 207.738 78.1767C209.771 77.567 210.596 75.0708 209.429 73.062C209.003 72.3301 207.777 71.5795 203.887 69.6698C188.817 62.2708 173.605 59.1283 156.59 59.8989ZM84.1721 60.9808C78.8869 61.7595 73.5066 65.3495 70.8669 69.8583C67.8031 75.0914 67.6001 81.9876 70.3506 87.4245C73.0267 92.7148 78.3306 96.5655 84.3044 97.5548C93.099 99.0117 102.005 93.3717 104.571 84.7201C106.697 77.5517 104.118 69.4286 98.2527 64.8208C94.2063 61.642 89.1129 60.253 84.1721 60.9808ZM80.9159 103.604C75.5496 104.621 71.0577 106.81 67.3107 110.233C61.3072 115.717 58.1928 122.547 58.1222 130.38C58.0932 133.643 58.115 133.754 58.9579 134.599L59.8234 135.468H78.644C94.8538 135.468 97.5618 135.403 98.165 134.999C98.9133 134.499 105.94 121.216 106.814 118.65L107.328 117.144L106.304 115.056C104.765 111.918 100.463 107.746 96.9605 105.996C95.501 105.267 93.3234 104.387 92.1215 104.04C89.1784 103.191 84.1312 102.995 80.9159 103.604ZM152.843 104.573C141.157 106.345 130.515 111.808 122.706 120.044C115.519 127.622 111.164 136.136 109.22 146.405C108.819 148.524 108.687 150.953 108.682 156.249C108.676 162.451 108.761 163.684 109.405 166.697C111.619 177.063 115.789 184.965 122.99 192.44C130.731 200.477 139.871 205.279 151.751 207.55C153.192 207.826 156.38 207.965 161.117 207.958C167.392 207.949 168.71 207.858 171.575 207.237C182.087 204.959 190.721 200.21 198.17 192.61C202.899 187.787 205.404 184.327 208.029 178.997C210.104 174.784 211.362 171.112 212.385 166.281C213.14 162.718 213.219 161.717 213.213 155.78C213.205 148.436 212.765 145.516 210.756 139.48C206.754 127.458 197.482 116.746 185.293 110.065C176.337 105.155 163.42 102.969 152.843 104.573ZM66.1843 146.526C64.9153 147.301 64.5712 148.268 64.1878 152.142C63.3162 160.956 64.2362 172.541 66.5621 182.03C68.0188 187.974 71.4442 197.257 73.2743 200.221C74.5602 202.304 77.6088 202.282 78.8891 200.18C79.7536 198.761 79.6253 197.805 78.0983 194.279C72.5996 181.579 70.094 167.41 70.9987 154.13C71.4183 147.969 71.2491 147.187 69.3206 146.381C67.9192 145.795 67.3382 145.822 66.1843 146.526ZM252.752 151.025C251.427 151.696 251.22 152.591 251.212 157.675C251.19 172.23 248.065 185.54 241.581 198.698C235.004 212.046 224.616 223.896 212.629 231.726C209.285 233.911 204.354 236.664 204.151 236.461C204.061 236.371 204.492 233.298 205.108 229.633C206.497 221.374 206.508 220.855 205.316 219.663C204.569 218.915 204.14 218.749 202.951 218.749C201.767 218.749 201.332 218.915 200.601 219.647C199.566 220.683 199.698 220.188 198.294 228.28C196.757 237.14 196.153 242.233 196.523 243.207C197.066 244.636 198.147 245.272 202.453 246.695C208.49 248.689 217.876 250.937 220.17 250.937C221.779 250.937 223.087 249.537 223.087 247.815C223.087 245.335 222.416 244.838 217.624 243.769C214.9 243.162 211.068 242.158 209.679 241.687C209.405 241.594 209.836 241.25 210.772 240.815C216.078 238.35 223.703 232.791 229.453 227.196C244.83 212.236 254.261 193.062 257.295 170.589C257.64 168.034 257.832 164.294 257.858 159.585L257.897 152.452L256.877 151.538C255.749 150.527 254.133 150.326 252.752 151.025ZM98.4434 196.478C99.173 196.544 100.368 196.544 101.097 196.478C101.827 196.412 101.23 196.358 99.7703 196.358C98.3108 196.358 97.7138 196.412 98.4434 196.478ZM95.6337 196.769C95.8485 196.855 96.1997 196.855 96.4142 196.769C96.629 196.682 96.4532 196.611 96.0239 196.611C95.5947 196.611 95.4192 196.682 95.6337 196.769ZM103.146 196.775C103.371 196.865 103.641 196.854 103.744 196.75C103.848 196.647 103.664 196.573 103.335 196.586C102.971 196.601 102.897 196.675 103.146 196.775ZM87.0967 201.64L86.502 202.343L87.2044 201.748C87.8644 201.188 88.0489 200.937 87.7992 200.937C87.7398 200.937 87.4239 201.253 87.0967 201.64ZM86.0337 225.78C86.437 226.21 86.8192 226.562 86.8832 226.562C87.1426 226.562 85.8561 225.018 85.5891 225.009C85.4302 225.004 85.6303 225.351 86.0337 225.78ZM111.906 227.734C111.518 228.229 111.529 228.24 112.024 227.852C112.544 227.443 112.709 227.187 112.452 227.187C112.388 227.187 112.142 227.433 111.906 227.734ZM87.9069 227.617C87.9069 227.682 88.1529 227.928 88.4532 228.164C88.9483 228.553 88.9593 228.542 88.5712 228.046C88.1632 227.525 87.9069 227.36 87.9069 227.617ZM96.9021 231.775C97.1272 231.865 97.3967 231.854 97.5003 231.75C97.604 231.647 97.4198 231.573 97.0907 231.586C96.727 231.601 96.653 231.675 96.9021 231.775ZM99.5421 232.091C99.8458 232.17 100.267 232.165 100.479 232.079C100.69 231.994 100.441 231.929 99.9264 231.935C99.4113 231.941 99.2383 232.011 99.5421 232.091ZM98.7594 238.033C99.1478 238.107 99.7097 238.105 100.008 238.026C100.307 237.948 99.9888 237.887 99.302 237.89C98.6152 237.894 98.371 237.958 98.7594 238.033ZM131.458 239.982C129.763 240.676 128.993 242.936 129.871 244.635C130.458 245.773 131.618 246.413 135.517 247.749C146.063 251.365 158.643 252.846 170.482 251.867C175.749 251.431 181.835 250.393 182.958 249.74C184.655 248.752 184.823 246.045 183.284 244.504C182.348 243.567 180.918 243.526 175.531 244.282C170.186 245.033 157.355 245.028 151.751 244.274C146.4 243.554 141.338 242.408 136.887 240.908C133.157 239.651 132.528 239.544 131.458 239.982ZM84.9226 242.048C84.3407 242.515 84.3444 242.52 85.0191 242.193C85.4056 242.005 85.7215 241.787 85.7215 241.707C85.7215 241.468 85.5595 241.537 84.9226 242.048ZM83.0678 243.308L82.1313 244.113L83.1459 243.441C83.7041 243.072 84.1605 242.708 84.1605 242.634C84.1605 242.4 84.0285 242.482 83.0678 243.308ZM114.756 242.93C114.756 242.995 115.002 243.241 115.302 243.477C115.797 243.865 115.808 243.854 115.42 243.359C115.012 242.838 114.756 242.673 114.756 242.93ZM81.3108 244.609C80.9228 245.104 80.9337 245.115 81.4288 244.727C81.9489 244.318 82.1141 244.062 81.8571 244.062C81.7925 244.062 81.5465 244.308 81.3108 244.609ZM79.604 246.327L79.0093 247.03L79.7117 246.435C80.0982 246.108 80.4142 245.791 80.4142 245.732C80.4142 245.482 80.1629 245.667 79.604 246.327ZM73.2337 265.16C73.2337 265.261 73.721 265.547 74.3164 265.796C75.2355 266.181 79.0449 266.238 99.5261 266.176L123.653 266.102L99.1459 265.941C79.9933 265.816 74.485 265.693 73.9361 265.379C73.5496 265.158 73.2337 265.06 73.2337 265.16Z" fill="#CC9018"/>
</svg>
